# Blender 4.4.1
# www.blender.org
mtllib fatfish.mtl
o Cube
v 2.857324 0.915467 -0.638764
v 2.857324 -0.590382 -0.638764
v -5.621830 0.510868 -0.089579
v -5.621830 0.309264 -0.089579
v 2.821752 0.162542 -0.828459
v -5.609000 0.410066 -0.198569
v -5.609000 -0.017576 0.000000
v 2.821752 1.139064 0.000000
v -5.609000 0.837708 0.000000
v 2.821752 -0.813980 0.000000
v 3.429783 0.353563 0.000000
v -5.829787 0.410066 0.000000
v 1.389714 1.096205 -1.023402
v 1.363819 0.000000 -1.327324
v 1.389714 -1.096205 -1.023402
v 1.363819 1.421748 0.000000
v 1.363819 -1.421748 0.000000
v -2.299279 -0.248075 -0.572688
v -2.258380 -0.717438 0.000000
v -2.299279 0.722198 -0.572688
v -2.262709 0.225054 -0.739183
v -2.258380 1.164704 0.000000
v -0.545389 1.025306 -1.023402
v -0.527904 0.000000 -1.327324
v -0.527904 1.336731 0.000000
v -0.545389 -1.025306 -1.023402
v -0.527904 -1.274879 0.000000
v -3.582016 -0.006768 -0.354381
v -3.568532 -0.713256 0.000000
v -3.582016 0.628920 -0.354381
v -3.570435 0.296224 -0.457409
v -3.568532 1.298613 0.000000
v -4.773244 0.143286 -0.245010
v -4.761389 -0.566962 0.000000
v -4.773244 0.618485 -0.245010
v -4.761389 0.306155 -0.316241
v -4.761389 1.181484 0.000000
v 1.043411 -1.188421 -1.634310
v 0.713651 -1.592129 -1.247966
v 0.626455 -1.401711 -1.585315
v 2.857324 0.915467 0.638764
v 2.857324 -0.590382 0.638764
v -5.621830 0.510868 0.089579
v -5.621830 0.309264 0.089579
v 2.821752 0.162542 0.828459
v -5.609000 0.410066 0.198569
v 1.389714 1.096205 1.023402
v 1.363819 0.000000 1.327324
v 1.389714 -1.096205 1.023402
v -2.299279 -0.248075 0.572688
v -2.299279 0.722198 0.572688
v -2.262709 0.225054 0.739183
v -0.545389 1.025306 1.023402
v -0.527904 0.000000 1.327324
v -0.545389 -1.025306 1.023402
v -3.582016 -0.006768 0.354381
v -3.582016 0.628920 0.354381
v -3.570435 0.296224 0.457409
v -4.773244 0.143286 0.245010
v -4.773244 0.618485 0.245010
v -4.761389 0.306155 0.316241
v 1.043411 -1.188421 1.634310
v 0.713651 -1.592129 1.247966
v 0.626455 -1.401711 1.585315
vn -0.5430 0.5837 -0.6037
vn 0.2821 0.2387 -0.9292
vn -0.4825 -0.2491 -0.8398
vn -0.0051 -0.2754 -0.9613
vn -0.0389 0.9541 -0.2971
vn -0.0051 0.2754 -0.9613
vn 0.8814 -0.4590 -0.1116
vn 0.7880 0.1152 -0.6049
vn -0.1776 0.3507 -0.9195
vn -0.1754 0.8926 -0.4152
vn -0.2801 0.2743 -0.9200
vn -0.0547 -0.9612 -0.2703
vn 0.7796 0.6034 -0.1678
vn 0.8131 -0.1058 -0.5724
vn -0.4825 0.2491 -0.8397
vn -0.5430 -0.5837 -0.6037
vn 0.1877 0.9347 -0.3019
vn 0.3734 -0.8849 -0.2785
vn 0.3296 -0.2333 -0.9149
vn -0.1836 0.2940 -0.9380
vn -0.3452 -0.2698 -0.8989
vn -0.3737 -0.8508 -0.3695
vn -0.0905 -0.3894 -0.9166
vn -0.1012 0.2560 -0.9614
vn -0.1210 -0.3424 -0.9317
vn -0.0544 0.6409 -0.7657
vn -0.2167 -0.5370 -0.8153
vn -0.1473 0.3881 -0.9098
vn -0.2135 -0.3046 -0.9283
vn -0.0646 0.4375 -0.8969
vn -0.2160 -0.3083 -0.9264
vn -0.1239 -0.6179 -0.7764
vn 0.6249 -0.7422 -0.2422
vn 0.3370 -0.7800 -0.5274
vn -0.4415 0.8897 0.1160
vn -0.6137 0.6091 0.5024
vn -0.5430 0.5837 0.6037
vn 0.2821 0.2387 0.9292
vn -0.4825 -0.2491 0.8397
vn -0.0051 -0.2754 0.9613
vn -0.0389 0.9541 0.2971
vn -0.0051 0.2754 0.9613
vn 0.8814 -0.4590 0.1116
vn 0.7880 0.1152 0.6049
vn -0.1776 0.3507 0.9195
vn -0.1754 0.8926 0.4152
vn -0.2801 0.2743 0.9200
vn -0.0547 -0.9612 0.2703
vn 0.7796 0.6034 0.1678
vn 0.8131 -0.1058 0.5724
vn -0.4825 0.2491 0.8397
vn -0.5430 -0.5837 0.6037
vn 0.1877 0.9347 0.3019
vn 0.3734 -0.8849 0.2785
vn 0.3296 -0.2333 0.9149
vn -0.1836 0.2940 0.9380
vn -0.3452 -0.2698 0.8989
vn -0.3737 -0.8508 0.3695
vn -0.0905 -0.3894 0.9166
vn -0.1012 0.2560 0.9614
vn -0.1210 -0.3424 0.9317
vn -0.0544 0.6409 0.7657
vn -0.2167 -0.5370 0.8153
vn -0.1473 0.3881 0.9098
vn -0.2135 -0.3046 0.9283
vn -0.0646 0.4375 0.8969
vn -0.2160 -0.3083 0.9264
vn -0.1239 -0.6179 0.7764
vn 0.6249 -0.7422 0.2422
vn 0.3370 -0.7800 0.5274
vn -0.4415 0.8897 -0.1160
vn -0.6137 0.6091 -0.5024
vt 0.500000 0.125000
vt 0.625000 0.250000
vt 0.500000 0.250000
vt 0.500000 0.500000
vt 0.500000 0.437500
vt 0.687500 0.500000
vt 0.625000 0.500000
vt 0.375000 0.125000
vt 0.375000 0.250000
vt 0.375000 0.343750
vt 0.500000 0.343750
vt 0.375000 0.437500
vt 0.781250 0.625000
vt 0.687500 0.625000
vt 0.781250 0.500000
vt 0.625000 0.343750
vt 0.375000 0.500000
vt 0.500000 0.625000
vt 0.375000 0.625000
vt 0.867188 0.500000
vt 0.875000 0.500000
vt 0.875000 0.625000
vt 0.867188 0.625000
vt 0.843750 0.500000
vt 0.843750 0.625000
vt 0.500000 0.281250
vt 0.218750 0.500000
vt 0.312500 0.500000
vt 0.312500 0.625000
vt 0.218750 0.625000
vt 0.625000 0.625000
vt 0.625000 0.125000
vt 0.500000 0.265625
vt 0.625000 0.265625
vt 0.375000 0.281250
vt 0.156250 0.625000
vt 0.132812 0.500000
vt 0.140625 0.500000
vt 0.140625 0.625000
vt 0.132812 0.625000
vt 0.500000 0.257812
vt 0.625000 0.257812
vt 0.375000 0.257812
vt 0.375000 0.265625
vt 0.859375 0.500000
vt 0.859375 0.625000
vt 0.125000 0.500000
vt 0.125000 0.625000
vt 0.000000 0.000000
s 0
usemtl Material
f 12/1/1 3/2/1 6/3/1
f 5/4/2 14/5/2 13/6/2 1/7/2
f 7/8/3 12/1/3 4/9/3
f 26/10/4 24/11/4 14/5/4 15/12/4
f 25/13/5 16/14/5 13/6/5 23/15/5
f 24/11/6 23/16/6 13/6/6 14/5/6
f 2/17/7 11/18/7 10/19/7
f 5/4/8 1/7/8 11/18/8
f 35/20/9 3/21/9 9/22/9 37/23/9
f 23/15/10 20/24/10 22/25/10 25/13/10
f 24/11/11 21/26/11 20/24/11 23/16/11
f 26/27/12 15/28/12 17/29/12 27/30/12
f 11/18/13 1/7/13 8/31/13
f 11/18/14 2/17/14 5/4/14
f 3/2/15 12/1/15 9/32/15
f 4/9/16 12/1/16 6/3/16
f 8/31/17 1/7/17 13/6/17 16/14/17
f 10/19/18 17/29/18 15/28/18 2/17/18
f 2/17/19 15/28/19 14/5/19 5/4/19
f 21/26/20 31/33/20 30/34/20 20/24/20
f 24/11/21 26/10/21 18/35/21 21/26/21
f 27/30/22 19/36/22 18/35/22 26/27/22
f 33/37/23 28/38/23 29/39/23 34/40/23
f 36/41/24 35/42/24 30/34/24 31/33/24
f 33/43/25 36/41/25 31/33/25 28/44/25
f 22/25/26 20/24/26 30/45/26 32/46/26
f 4/9/27 6/3/27 36/41/27 33/43/27
f 6/3/28 3/2/28 35/42/28 36/41/28
f 4/47/29 33/37/29 34/40/29 7/48/29
f 30/45/30 35/20/30 37/23/30 32/46/30
f 18/35/31 28/44/31 31/33/31 21/26/31
f 19/36/32 29/39/32 28/38/32 18/35/32
f 38/49/33 15/49/33 39/49/33
f 39/49/34 40/49/34 38/49/34
f 38/49/35 40/49/35 15/49/35
f 39/49/36 15/49/36 40/49/36
f 12/1/37 46/3/37 43/2/37
f 45/4/38 41/7/38 47/6/38 48/5/38
f 7/8/39 44/9/39 12/1/39
f 55/10/40 49/12/40 48/5/40 54/11/40
f 25/13/41 53/15/41 47/6/41 16/14/41
f 54/11/42 48/5/42 47/6/42 53/16/42
f 42/17/43 10/19/43 11/18/43
f 45/4/44 11/18/44 41/7/44
f 60/20/45 37/23/45 9/22/45 43/21/45
f 53/15/46 25/13/46 22/25/46 51/24/46
f 54/11/47 53/16/47 51/24/47 52/26/47
f 55/27/48 27/30/48 17/29/48 49/28/48
f 11/18/49 8/31/49 41/7/49
f 11/18/50 45/4/50 42/17/50
f 43/2/51 9/32/51 12/1/51
f 44/9/52 46/3/52 12/1/52
f 8/31/53 16/14/53 47/6/53 41/7/53
f 10/19/54 42/17/54 49/28/54 17/29/54
f 42/17/55 45/4/55 48/5/55 49/28/55
f 52/26/56 51/24/56 57/34/56 58/33/56
f 54/11/57 52/26/57 50/35/57 55/10/57
f 27/30/58 55/27/58 50/35/58 19/36/58
f 59/37/59 34/40/59 29/39/59 56/38/59
f 61/41/60 58/33/60 57/34/60 60/42/60
f 59/43/61 56/44/61 58/33/61 61/41/61
f 22/25/62 32/46/62 57/45/62 51/24/62
f 44/9/63 59/43/63 61/41/63 46/3/63
f 46/3/64 61/41/64 60/42/64 43/2/64
f 44/47/65 7/48/65 34/40/65 59/37/65
f 57/45/66 32/46/66 37/23/66 60/20/66
f 50/35/67 52/26/67 58/33/67 56/44/67
f 19/36/68 50/35/68 56/38/68 29/39/68
f 62/49/69 63/49/69 49/49/69
f 63/49/70 62/49/70 64/49/70
f 62/49/71 49/49/71 64/49/71
f 63/49/72 64/49/72 49/49/72
