# Blender 4.4.1
# www.blender.org
mtllib goblinfish.mtl
o Cube
v 0.080138 0.483820 -7.160940
v 0.099269 0.205816 -7.160940
v 0.064436 0.542658 1.569818
v 0.282819 -0.359521 0.405463
v 0.145108 0.309840 -7.160940
v 0.355704 0.134390 0.405463
v 0.000000 0.174230 -7.160940
v 0.000000 0.542658 1.569818
v 0.000000 -0.313087 0.618952
v 0.000000 0.497387 -7.160940
v 0.021954 0.383155 -8.413730
v 0.000000 0.090713 0.676317
v 0.328104 0.805891 -2.304208
v 0.468217 -0.564821 -2.304208
v 0.684426 0.000000 -2.304208
v 0.000000 -0.615940 -2.304208
v 0.000000 0.871239 -2.304208
v 0.274684 0.736677 -0.829300
v 0.497426 -0.062562 -0.772230
v 0.000000 -0.474424 -0.829300
v 0.000000 0.827532 -0.829300
v 0.340290 -0.355248 -0.772230
v 0.446734 -0.291991 -3.647991
v 0.338545 0.685589 -3.779116
v 0.585642 -0.043015 -3.647991
v 0.000000 -0.392170 -3.779116
v 0.000000 0.781173 -3.779116
v 0.123675 0.400171 -7.160940
v 0.231315 0.381345 0.512275
v 0.018711 0.398625 -8.413730
v 0.000000 0.331170 0.528752
v 0.583335 0.500000 -2.304208
v 0.463784 0.500000 -0.829300
v 0.522470 0.473955 -3.779116
v 0.145108 0.255552 -7.160940
v 0.363213 -0.112565 0.405463
v 0.000000 -0.132339 0.752019
v 0.012124 0.412951 -8.413730
v 0.684426 -0.353961 -2.304208
v 0.497426 -0.246579 -0.772230
v 0.613013 -0.147003 -3.647991
v 0.139363 -0.313087 0.618952
v 0.040069 0.497387 -7.160940
v 0.006062 0.415274 -8.413730
v 0.049634 0.174230 -7.160940
v 0.039826 0.542658 1.569818
v 0.238987 0.090713 0.676317
v 0.081466 0.871239 -2.304208
v 0.234108 -0.615940 -2.304208
v 0.150259 0.779630 -0.829300
v 0.186129 -0.474424 -0.829300
v 0.209682 -0.392170 -3.779116
v 0.079890 0.781173 -3.779116
v 0.194342 0.331170 0.528752
v 0.205495 -0.132339 0.752019
v 0.015018 0.365421 -8.413730
v 0.021954 0.373857 -8.413730
v 0.208632 0.620098 -0.077331
v 0.479840 0.025227 -0.178228
v 0.000000 -0.471210 -0.178228
v 0.000000 0.620098 -0.077331
v 0.328260 -0.471210 -0.178228
v 0.356671 0.394368 -0.145274
v 0.479840 -0.258001 -0.178228
v 0.104316 0.620098 -0.077331
v 0.164130 -0.471210 -0.178228
v 0.437958 -0.496764 -1.566754
v 0.353556 0.779630 -1.566754
v 0.640194 -0.062562 -1.566754
v 0.000000 -0.615940 -1.566754
v 0.000000 0.940033 -1.566754
v 0.545637 0.500000 -1.566754
v 0.640194 -0.285903 -1.566754
v 0.218979 -0.615940 -1.566754
v 0.176778 0.892131 -1.566754
v 0.328104 0.805891 -3.041662
v 0.652251 -0.124644 -3.041662
v 0.000000 -0.555806 -3.041662
v 0.000000 0.871239 -3.041662
v 0.500392 -0.380043 -3.041662
v 0.583335 0.500000 -3.041662
v 0.684426 -0.293827 -3.041662
v 0.234108 -0.555806 -3.041662
v 0.081466 0.871239 -3.041662
v 0.308248 -0.156595 -4.419772
v 0.248844 0.560503 -4.419772
v 0.450588 0.142372 -4.419772
v 0.000000 -0.207714 -4.419772
v 0.000000 0.653170 -4.419772
v 0.384035 0.442524 -4.419772
v 0.450588 0.019965 -4.419772
v 0.058722 0.653170 -4.419772
v 0.045447 -0.207714 -4.419772
v 0.144585 0.542658 0.576894
v 0.440319 0.068884 0.130095
v 0.000000 -0.546980 0.121856
v 0.000000 0.542658 0.576894
v 0.299724 0.442288 0.130095
v 0.440319 -0.304520 0.130095
v 0.089364 0.542658 0.576894
v 0.164130 -0.546980 0.121856
v 0.301223 -0.500168 0.130095
v 0.142937 0.092963 -5.790356
v 0.115391 0.574798 -5.790356
v 0.208941 0.301852 -5.790356
v 0.000000 0.061377 -5.790356
v 0.000000 0.596448 -5.790356
v 0.178080 0.461474 -5.790356
v 0.208941 0.191145 -5.790356
v 0.057695 0.596448 -5.790356
v 0.071468 0.061377 -5.790356
v 0.119990 0.134271 -6.475648
v 0.096866 0.532770 -6.475648
v 0.175398 0.298254 -6.475648
v 0.000000 0.102685 -6.475648
v 0.000000 0.551226 -6.475648
v 0.149491 0.428265 -6.475648
v 0.175398 0.213310 -6.475648
v 0.048433 0.551226 -6.475648
v 0.059995 0.102685 -6.475648
v 0.136546 0.555141 -5.105063
v 0.247247 0.310055 -5.105063
v 0.000000 0.049918 -5.105063
v 0.000000 0.574714 -5.105063
v 0.210728 0.459900 -5.105063
v 0.247247 0.201356 -5.105063
v 0.068273 0.574714 -5.105063
v 0.047129 0.049918 -5.105063
v 0.169142 0.049918 -5.105063
v 0.115652 0.296607 -7.776597
v 0.079118 0.274432 -7.776597
v 0.031935 0.456480 -7.776597
v 0.063871 0.447511 -7.776597
v 0.098570 0.392212 -7.776597
v 0.115652 0.332496 -7.776597
v 0.039559 0.242846 -7.776597
v 0.000000 0.242846 -7.776597
v 0.000000 0.456480 -7.776597
v 0.010977 0.383155 -8.413730
v 0.007509 0.359929 -8.413730
v 0.000000 0.359929 -8.413730
v 0.000000 0.415274 -8.413730
v 0.000000 0.383155 -8.413730
v 0.000000 0.373857 -8.413730
v 0.000000 0.398625 -8.413730
v 0.009356 0.398625 -8.413730
v 0.010977 0.373857 -8.413730
v 0.000000 1.120479 -2.942675
v 0.055041 1.025996 -2.832022
v 0.000000 0.854744 -4.332166
v 0.048497 0.793322 -4.239405
v 0.000000 -0.207611 -4.974126
v 0.044048 -0.122196 -4.868999
v 0.000000 -0.193092 -5.718587
v 0.047129 -0.072180 -5.953722
v 0.000000 -0.026813 -6.901606
v 0.047129 0.031135 -6.827692
v 0.965052 -0.111456 -1.193253
v 0.741267 -0.405043 -1.163593
v 1.503973 -0.246579 -1.388994
v 0.668731 -0.407421 -3.413800
v 0.820485 -0.225100 -3.399460
v 0.971932 -0.364992 -3.521826
v -0.080138 0.483820 -7.160940
v -0.099269 0.205816 -7.160940
v -0.064436 0.542658 1.569818
v -0.282819 -0.359521 0.405463
v -0.145108 0.309840 -7.160940
v -0.355704 0.134390 0.405463
v -0.021954 0.383155 -8.413730
v -0.328104 0.805891 -2.304208
v -0.468217 -0.564821 -2.304208
v -0.684426 0.000000 -2.304208
v -0.274684 0.736677 -0.829300
v -0.497426 -0.062562 -0.772230
v -0.340290 -0.355248 -0.772230
v -0.446734 -0.291991 -3.647991
v -0.338545 0.685589 -3.779116
v -0.585642 -0.043015 -3.647991
v -0.123675 0.400171 -7.160940
v -0.231315 0.381345 0.512275
v -0.018711 0.398625 -8.413730
v -0.583335 0.500000 -2.304208
v -0.463784 0.500000 -0.829300
v -0.522470 0.473955 -3.779116
v -0.145108 0.255552 -7.160940
v -0.363213 -0.112565 0.405463
v -0.012124 0.412951 -8.413730
v -0.684426 -0.353961 -2.304208
v -0.497426 -0.246579 -0.772230
v -0.613013 -0.147003 -3.647991
v -0.139363 -0.313087 0.618952
v -0.040069 0.497387 -7.160940
v -0.006062 0.415274 -8.413730
v -0.049634 0.174230 -7.160940
v -0.039826 0.542658 1.569818
v -0.238987 0.090713 0.676317
v -0.081466 0.871239 -2.304208
v -0.234108 -0.615940 -2.304208
v -0.150259 0.779630 -0.829300
v -0.186129 -0.474424 -0.829300
v -0.209682 -0.392170 -3.779116
v -0.079890 0.781173 -3.779116
v -0.194342 0.331170 0.528752
v -0.205495 -0.132339 0.752019
v -0.015018 0.365421 -8.413730
v -0.021954 0.373857 -8.413730
v -0.208632 0.620098 -0.077331
v -0.479840 0.025227 -0.178228
v -0.328260 -0.471210 -0.178228
v -0.356671 0.394368 -0.145274
v -0.479840 -0.258001 -0.178228
v -0.104316 0.620098 -0.077331
v -0.164130 -0.471210 -0.178228
v -0.437958 -0.496764 -1.566754
v -0.353556 0.779630 -1.566754
v -0.640194 -0.062562 -1.566754
v -0.545637 0.500000 -1.566754
v -0.640194 -0.285903 -1.566754
v -0.218979 -0.615940 -1.566754
v -0.176778 0.892131 -1.566754
v -0.328104 0.805891 -3.041662
v -0.652251 -0.124644 -3.041662
v -0.500392 -0.380043 -3.041662
v -0.583335 0.500000 -3.041662
v -0.684426 -0.293827 -3.041662
v -0.234108 -0.555806 -3.041662
v -0.081466 0.871239 -3.041662
v -0.308248 -0.156595 -4.419772
v -0.248844 0.560503 -4.419772
v -0.450588 0.142372 -4.419772
v -0.384035 0.442524 -4.419772
v -0.450588 0.019965 -4.419772
v -0.058722 0.653170 -4.419772
v -0.045447 -0.207714 -4.419772
v -0.144585 0.542658 0.576894
v -0.440319 0.068884 0.130095
v -0.299724 0.442288 0.130095
v -0.440319 -0.304520 0.130095
v -0.089364 0.542658 0.576894
v -0.164130 -0.546980 0.121856
v -0.301223 -0.500168 0.130095
v -0.142937 0.092963 -5.790356
v -0.115391 0.574798 -5.790356
v -0.208941 0.301852 -5.790356
v -0.178080 0.461474 -5.790356
v -0.208941 0.191145 -5.790356
v -0.057695 0.596448 -5.790356
v -0.071468 0.061377 -5.790356
v -0.119990 0.134271 -6.475648
v -0.096866 0.532770 -6.475648
v -0.175398 0.298254 -6.475648
v -0.149491 0.428265 -6.475648
v -0.175398 0.213310 -6.475648
v -0.048433 0.551226 -6.475648
v -0.059995 0.102685 -6.475648
v -0.136546 0.555141 -5.105063
v -0.247247 0.310055 -5.105063
v -0.210728 0.459900 -5.105063
v -0.247247 0.201356 -5.105063
v -0.068273 0.574714 -5.105063
v -0.047129 0.049918 -5.105063
v -0.169142 0.049918 -5.105063
v -0.115652 0.296607 -7.776597
v -0.079118 0.274432 -7.776597
v -0.031935 0.456480 -7.776597
v -0.063871 0.447511 -7.776597
v -0.098570 0.392212 -7.776597
v -0.115652 0.332496 -7.776597
v -0.039559 0.242846 -7.776597
v -0.010977 0.383155 -8.413730
v -0.007509 0.359929 -8.413730
v -0.009356 0.398625 -8.413730
v -0.010977 0.373857 -8.413730
v -0.055041 1.025996 -2.832022
v -0.048497 0.793322 -4.239405
v -0.044048 -0.122196 -4.868999
v -0.047129 -0.072180 -5.953722
v -0.047129 0.031135 -6.827692
v -0.965052 -0.111456 -1.193253
v -0.741267 -0.405043 -1.163593
v -1.503973 -0.246579 -1.388994
v -0.668731 -0.407421 -3.413800
v -0.820485 -0.225100 -3.399460
v -0.971932 -0.364992 -3.521826
vn 0.3145 -0.8471 0.4283
vn 0.8934 0.4340 0.1158
vn -0.0000 -0.9938 -0.1108
vn 0.5748 -0.8116 -0.1046
vn 0.9609 0.0116 0.2767
vn -0.0000 0.3214 0.9469
vn 0.9678 0.2484 -0.0399
vn -0.0000 -0.9800 0.1991
vn -0.0000 1.0000 -0.0000
vn 0.9978 0.0614 -0.0245
vn 0.7678 0.6407 -0.0000
vn 0.4088 -0.9017 -0.1408
vn 0.2780 0.9488 0.1497
vn 0.9842 -0.0000 0.1769
vn 0.8001 0.5907 0.1044
vn 0.5059 -0.8395 0.1982
vn 0.3442 -0.8971 -0.2769
vn 0.7027 0.6803 -0.2082
vn 0.9797 0.1184 -0.1618
vn -0.0000 0.9806 -0.1959
vn 0.9763 0.1269 -0.1752
vn 0.9824 0.1192 0.1440
vn 0.9882 0.1494 -0.0342
vn -0.0000 0.5230 0.8523
vn -0.0000 0.9978 -0.0663
vn 0.9117 0.3533 0.2097
vn 0.6954 -0.6674 -0.2663
vn 0.6533 -0.7348 0.1825
vn 0.5917 -0.7972 -0.1195
vn 0.2981 0.9523 -0.0656
vn -0.0000 -0.5929 0.8053
vn 0.8249 -0.4091 0.3901
vn 0.6548 -0.7501 -0.0932
vn 0.7945 -0.4112 0.4468
vn 0.7891 0.3176 0.5258
vn 0.3781 0.9014 -0.2108
vn -0.0000 -0.9610 -0.2767
vn -0.0000 -0.9821 0.1885
vn 0.4550 0.8816 0.1254
vn -0.0000 -0.9967 -0.0813
vn 0.2561 0.9666 -0.0000
vn 0.6510 -0.7240 0.2283
vn 0.9131 0.0151 0.4074
vn -0.0000 -0.9048 0.4257
vn 0.9989 -0.0000 -0.0478
vn 0.8704 0.4901 -0.0469
vn -0.0000 -1.0000 0.0049
vn 0.1812 0.9648 0.1906
vn 0.7206 -0.6911 -0.0561
vn 0.9810 0.1676 0.0981
vn 0.1796 0.9544 0.2384
vn 0.9996 -0.0000 0.0296
vn 0.8069 0.5612 0.1842
vn 0.3613 -0.9295 -0.0743
vn 0.3871 0.9216 -0.0283
vn -0.0000 -1.0000 -0.0000
vn 0.7063 -0.7008 0.1003
vn 0.9816 0.1807 0.0622
vn 0.3513 -0.9347 0.0539
vn 0.7945 0.6070 0.0174
vn 0.9982 -0.0000 0.0599
vn 0.1819 0.9807 -0.0714
vn 0.3008 0.9444 -0.1329
vn -0.0000 -0.9763 -0.2166
vn 0.5381 -0.8154 -0.2134
vn 0.9905 0.1043 -0.0896
vn 0.5092 -0.8401 -0.1869
vn 0.7594 0.6444 -0.0899
vn 0.9746 0.2124 -0.0709
vn -0.0000 0.9926 -0.1212
vn -0.0000 -0.9360 -0.3519
vn 0.3969 0.9138 -0.0856
vn 0.7796 -0.5240 -0.3431
vn 0.9483 0.2172 -0.2313
vn -0.0000 0.9935 -0.1137
vn 0.9587 -0.0000 -0.2845
vn 0.7064 0.6936 -0.1411
vn 0.1243 -0.9360 -0.3294
vn -0.0000 -0.9696 -0.2448
vn -0.0000 0.9931 0.1175
vn 0.8149 -0.5794 0.0170
vn 0.9387 0.3288 0.1035
vn 0.9919 -0.0000 0.1271
vn 0.8168 0.5634 0.1242
vn 0.1559 -0.9746 -0.1608
vn 0.4322 -0.8994 -0.0651
vn 0.8824 0.4671 -0.0560
vn 0.9988 -0.0000 -0.0489
vn -0.0000 0.9978 -0.0658
vn 0.9801 0.1921 -0.0496
vn 0.8235 -0.5642 -0.0601
vn 0.3527 0.9334 -0.0666
vn -0.0000 -0.9982 -0.0602
vn -0.0000 -0.9946 -0.1038
vn 0.3392 0.9376 -0.0765
vn 0.7836 -0.6161 -0.0803
vn 0.9768 0.2099 -0.0425
vn -0.0000 0.9969 -0.0783
vn 0.9990 -0.0000 -0.0442
vn 0.8892 0.4544 -0.0531
vn 0.4967 -0.8620 -0.1013
vn 0.1610 -0.9862 -0.0394
vn 0.8358 0.5485 -0.0243
vn 0.9984 -0.0000 -0.0558
vn -0.0000 0.9995 0.0317
vn 0.9758 0.2125 -0.0515
vn 0.8648 -0.4993 -0.0527
vn 0.3109 0.9502 0.0215
vn -0.0000 -0.9999 -0.0167
vn -0.0000 0.9979 -0.0645
vn -0.0000 -0.9835 -0.1807
vn 0.8559 0.5075 -0.0996
vn 0.9585 0.2591 -0.1189
vn 0.2841 0.9559 -0.0741
vn 0.9894 -0.0000 -0.1455
vn 0.6095 -0.7738 -0.1723
vn 0.5667 -0.8048 -0.1764
vn -0.0000 -0.0000 -1.0000
vn 0.3691 0.8808 0.2967
vn 0.7293 0.4448 -0.5199
vn 0.9857 0.1683 -0.0000
vn 0.3917 0.9177 0.0655
vn 0.9862 0.1533 -0.0632
vn 0.7181 0.4426 -0.5370
vn -0.7249 0.6862 0.0596
vn -0.9995 0.0300 0.0088
vn -0.8294 0.3662 0.4218
vn -0.8796 0.4616 -0.1153
vn -0.8565 0.5118 0.0671
vn -0.9759 0.2158 -0.0311
vn -0.9885 0.1489 0.0255
vn -0.9935 0.1130 0.0134
vn 0.9973 -0.0695 -0.0223
vn 0.9969 -0.0749 -0.0247
vn 0.6547 -0.7302 -0.1954
vn 0.5259 0.4427 0.7262
vn 0.3538 -0.7693 0.5319
vn 0.1237 0.9921 0.0222
vn 0.2828 0.7510 -0.5967
vn 0.0554 -0.9818 0.1817
vn 0.2678 -0.9037 -0.3342
vn -0.6648 -0.6615 0.3471
vn -0.0891 0.6554 0.7500
vn -0.5816 -0.8122 -0.0454
vn -0.8509 -0.3508 -0.3910
vn -0.3009 0.9156 -0.2668
vn 0.3731 0.9223 0.1009
vn -0.3145 -0.8471 0.4283
vn -0.8934 0.4340 0.1158
vn -0.5748 -0.8116 -0.1046
vn -0.9609 0.0116 0.2767
vn -0.9678 0.2484 -0.0399
vn -0.9978 0.0614 -0.0245
vn -0.7678 0.6407 -0.0000
vn -0.4088 -0.9017 -0.1408
vn -0.2780 0.9488 0.1497
vn -0.9842 -0.0000 0.1769
vn -0.8001 0.5907 0.1044
vn -0.5059 -0.8395 0.1982
vn -0.3442 -0.8971 -0.2769
vn -0.7027 0.6803 -0.2082
vn -0.9797 0.1184 -0.1618
vn -0.9763 0.1269 -0.1752
vn -0.9824 0.1192 0.1440
vn -0.9882 0.1494 -0.0342
vn -0.9117 0.3533 0.2097
vn -0.6954 -0.6674 -0.2663
vn -0.6533 -0.7348 0.1825
vn -0.5917 -0.7972 -0.1195
vn -0.2981 0.9523 -0.0656
vn -0.8249 -0.4091 0.3901
vn -0.6548 -0.7501 -0.0932
vn -0.7945 -0.4112 0.4468
vn -0.7891 0.3176 0.5258
vn -0.3781 0.9014 -0.2108
vn -0.4550 0.8816 0.1254
vn -0.2561 0.9666 -0.0000
vn -0.6510 -0.7240 0.2283
vn -0.9131 0.0151 0.4074
vn -0.9989 -0.0000 -0.0478
vn -0.8704 0.4901 -0.0469
vn -0.1812 0.9648 0.1906
vn -0.7206 -0.6911 -0.0561
vn -0.9810 0.1676 0.0981
vn -0.1796 0.9544 0.2384
vn -0.9996 -0.0000 0.0296
vn -0.8069 0.5612 0.1842
vn -0.3613 -0.9295 -0.0743
vn -0.3871 0.9216 -0.0283
vn -0.7063 -0.7008 0.1003
vn -0.9816 0.1807 0.0622
vn -0.3513 -0.9347 0.0539
vn -0.7945 0.6070 0.0174
vn -0.9982 -0.0000 0.0599
vn -0.1819 0.9807 -0.0714
vn -0.3008 0.9444 -0.1329
vn -0.5381 -0.8154 -0.2134
vn -0.9905 0.1043 -0.0896
vn -0.5092 -0.8401 -0.1869
vn -0.7594 0.6444 -0.0899
vn -0.9746 0.2124 -0.0709
vn -0.3969 0.9138 -0.0856
vn -0.7796 -0.5240 -0.3431
vn -0.9483 0.2172 -0.2313
vn -0.9587 -0.0000 -0.2845
vn -0.7064 0.6936 -0.1411
vn -0.1243 -0.9360 -0.3294
vn -0.8149 -0.5794 0.0170
vn -0.9387 0.3288 0.1035
vn -0.9919 -0.0000 0.1271
vn -0.8168 0.5634 0.1242
vn -0.1559 -0.9746 -0.1608
vn -0.4322 -0.8994 -0.0651
vn -0.8824 0.4671 -0.0560
vn -0.9988 -0.0000 -0.0489
vn -0.9801 0.1921 -0.0496
vn -0.8235 -0.5642 -0.0601
vn -0.3527 0.9334 -0.0666
vn -0.3392 0.9376 -0.0765
vn -0.7836 -0.6161 -0.0803
vn -0.9768 0.2099 -0.0425
vn -0.9990 -0.0000 -0.0442
vn -0.8892 0.4544 -0.0531
vn -0.4967 -0.8620 -0.1013
vn -0.1610 -0.9862 -0.0394
vn -0.8358 0.5485 -0.0243
vn -0.9984 -0.0000 -0.0558
vn -0.9758 0.2125 -0.0515
vn -0.8648 -0.4993 -0.0527
vn -0.3109 0.9502 0.0215
vn -0.8559 0.5075 -0.0996
vn -0.9585 0.2591 -0.1189
vn -0.2841 0.9559 -0.0741
vn -0.9894 -0.0000 -0.1455
vn -0.6095 -0.7738 -0.1723
vn -0.5667 -0.8048 -0.1764
vn -0.0000 0.0001 -1.0000
vn -0.3691 0.8808 0.2967
vn -0.7293 0.4448 -0.5199
vn -0.9857 0.1683 -0.0000
vn -0.3917 0.9177 0.0655
vn -0.9862 0.1533 -0.0632
vn -0.7181 0.4426 -0.5370
vn 0.7249 0.6862 0.0596
vn 0.9995 0.0300 0.0088
vn 0.8294 0.3662 0.4218
vn 0.8796 0.4616 -0.1153
vn 0.8565 0.5118 0.0671
vn 0.9759 0.2158 -0.0311
vn 0.9885 0.1489 0.0255
vn 0.9935 0.1130 0.0134
vn -0.9973 -0.0695 -0.0223
vn -0.9969 -0.0749 -0.0247
vn -0.6547 -0.7302 -0.1954
vn -0.5259 0.4427 0.7262
vn -0.3538 -0.7693 0.5319
vn -0.1237 0.9921 0.0222
vn -0.2828 0.7510 -0.5967
vn -0.0554 -0.9818 0.1817
vn -0.2678 -0.9037 -0.3342
vn 0.6648 -0.6615 0.3471
vn 0.0891 0.6554 0.7500
vn 0.5816 -0.8122 -0.0454
vn 0.8509 -0.3508 -0.3910
vn 0.3009 0.9156 -0.2668
vn -0.3731 0.9223 0.1009
vt 0.312500 0.734375
vt 0.375000 0.734375
vt 0.375000 0.750000
vt 0.312500 0.750000
vt 0.562500 0.734375
vt 0.625000 0.734375
vt 0.625000 0.750000
vt 0.562500 0.750000
vt 0.312500 0.500000
vt 0.250000 0.500000
vt 0.375000 0.500000
vt 0.437500 0.734375
vt 0.500000 0.734375
vt 0.500000 0.750000
vt 0.437500 0.750000
vt 0.437500 0.812500
vt 0.500000 0.812500
vt 0.500000 0.875000
vt 0.437500 0.875000
vt 0.562500 0.500000
vt 0.500000 0.500000
vt 0.562500 0.812500
vt 0.625000 0.812500
vt 0.625000 0.875000
vt 0.562500 0.875000
vt 0.687500 0.734375
vt 0.750000 0.734375
vt 0.750000 0.750000
vt 0.687500 0.750000
vt 0.687500 0.593750
vt 0.750000 0.593750
vt 0.750000 0.625000
vt 0.687500 0.625000
vt 0.437500 0.593750
vt 0.500000 0.593750
vt 0.500000 0.625000
vt 0.437500 0.625000
vt 0.562500 0.593750
vt 0.625000 0.593750
vt 0.625000 0.625000
vt 0.562500 0.625000
vt 0.312500 0.593750
vt 0.375000 0.593750
vt 0.375000 0.625000
vt 0.312500 0.625000
vt 0.687500 0.656250
vt 0.750000 0.656250
vt 0.750000 0.687500
vt 0.687500 0.687500
vt 0.437500 0.656250
vt 0.500000 0.656250
vt 0.500000 0.687500
vt 0.437500 0.687500
vt 0.562500 0.656250
vt 0.625000 0.656250
vt 0.625000 0.687500
vt 0.562500 0.687500
vt 0.312500 0.656250
vt 0.375000 0.656250
vt 0.375000 0.687500
vt 0.312500 0.687500
vt 0.312500 0.531250
vt 0.375000 0.531250
vt 0.375000 0.562500
vt 0.312500 0.562500
vt 0.562500 0.531250
vt 0.625000 0.531250
vt 0.625000 0.562500
vt 0.562500 0.562500
vt 0.437500 0.531250
vt 0.500000 0.531250
vt 0.500000 0.562500
vt 0.437500 0.562500
vt 0.687500 0.531250
vt 0.750000 0.531250
vt 0.750000 0.562500
vt 0.687500 0.562500
vt 0.750000 0.500000
vt 0.687500 0.500000
vt 0.625000 0.500000
vt 0.375000 0.812500
vt 0.375000 0.875000
vt 0.437500 0.500000
vt 0.250000 0.531250
vt 0.250000 0.562500
vt 0.250000 0.656250
vt 0.250000 0.687500
vt 0.250000 0.593750
vt 0.250000 0.625000
vt 0.250000 0.734375
vt 0.250000 0.750000
vt 0.312500 0.718750
vt 0.250000 0.718750
vt 0.687500 0.718750
vt 0.625000 0.718750
vt 0.437500 0.718750
vt 0.375000 0.718750
vt 0.562500 0.718750
vt 0.500000 0.718750
vt 0.750000 0.718750
vt 0.250000 0.523438
vt 0.312500 0.523438
vt 0.625000 0.523438
vt 0.687500 0.523438
vt 0.375000 0.523438
vt 0.437500 0.523437
vt 0.500000 0.523438
vt 0.562500 0.523438
vt 0.750000 0.523438
vt 0.312500 0.507812
vt 0.375000 0.507812
vt 0.375000 0.515625
vt 0.312500 0.515625
vt 0.562500 0.507812
vt 0.625000 0.507812
vt 0.625000 0.515625
vt 0.562500 0.515625
vt 0.437500 0.507812
vt 0.500000 0.507812
vt 0.500000 0.515625
vt 0.437500 0.515625
vt 0.687500 0.507812
vt 0.750000 0.507812
vt 0.750000 0.515625
vt 0.687500 0.515625
vt 0.250000 0.507812
vt 0.250000 0.515625
vt 0.562500 0.437500
vt 0.625000 0.437500
vt 0.437500 0.437500
vt 0.500000 0.437500
vt 0.375000 0.437500
vt 0.375000 0.375000
vt 0.437500 0.375000
vt 0.500000 0.375000
vt 0.562500 0.375000
vt 0.625000 0.375000
vt 0.000000 0.000000
s 0
usemtl Material
f 101/1/1 102/2/1 4/3/1 42/4/1
f 98/5/2 94/6/2 3/7/2 29/8/2
f 45/9/3 7/10/3 137/10/3 136/9/3
f 2/11/4 45/9/4 136/9/4 131/11/4
f 99/12/5 95/13/5 6/14/5 36/15/5
f 55/16/6 47/17/6 12/18/6 37/19/6
f 28/20/7 5/21/7 135/21/7 134/20/7
f 54/22/8 46/23/8 8/24/8 31/25/8
f 100/26/9 97/27/9 8/28/9 46/29/9
f 84/30/9 79/31/9 17/32/9 48/33/9
f 82/34/10 77/35/10 15/36/10 39/37/10
f 81/38/11 76/39/11 13/40/11 32/41/11
f 83/42/12 80/43/12 14/44/12 49/45/12
f 75/46/13 71/47/13 21/48/13 50/49/13
f 73/50/14 69/51/14 19/52/14 40/53/14
f 72/54/15 68/55/15 18/56/15 33/57/15
f 74/58/16 67/59/16 22/60/16 51/61/16
f 93/62/17 85/63/17 23/64/17 52/65/17
f 90/66/18 86/67/18 24/68/18 34/69/18
f 91/70/19 87/71/19 25/72/19 41/73/19
f 92/74/20 89/75/20 27/76/20 53/77/20
f 87/71/21 90/66/21 34/69/21 25/72/21
f 69/51/22 72/54/22 33/57/22 19/52/22
f 77/35/23 81/38/23 32/41/23 15/36/23
f 47/17/24 54/22/24 31/25/24 12/18/24
f 10/78/25 43/79/25 132/79/25 138/78/25
f 95/13/26 98/5/26 29/8/26 6/14/26
f 85/63/27 91/70/27 41/73/27 23/64/27
f 67/59/28 73/50/28 40/53/28 22/60/28
f 80/43/29 82/34/29 39/37/29 14/44/29
f 43/79/30 1/80/30 133/80/30 132/79/30
f 42/81/31 55/16/31 37/19/31 9/82/31
f 102/2/32 99/12/32 36/15/32 4/3/32
f 35/83/33 2/11/33 131/11/33 130/83/33
f 4/3/34 36/15/34 55/16/34 42/81/34
f 6/14/35 29/8/35 54/22/35 47/17/35
f 86/67/36 92/74/36 53/77/36 24/68/36
f 88/84/37 93/62/37 52/65/37 26/85/37
f 70/86/38 74/58/38 51/61/38 20/87/38
f 68/55/39 75/46/39 50/49/39 18/56/39
f 78/88/40 83/42/40 49/45/40 16/89/40
f 76/39/41 84/30/41 48/33/41 13/40/41
f 94/6/9 100/26/9 46/29/9 3/7/9
f 29/8/42 3/7/42 46/23/42 54/22/42
f 36/15/43 6/14/43 47/17/43 55/16/43
f 96/90/44 101/1/44 42/4/44 9/91/44
f 5/21/45 35/83/45 130/83/45 135/21/45
f 1/80/46 28/20/46 134/20/46 133/80/46
f 20/87/47 51/61/47 66/92/47 60/93/47
f 18/56/48 50/49/48 65/94/48 58/95/48
f 22/60/49 40/53/49 64/96/49 62/97/49
f 19/52/50 33/57/50 63/98/50 59/99/50
f 50/49/51 21/48/51 61/100/51 65/94/51
f 40/53/52 19/52/52 59/99/52 64/96/52
f 33/57/53 18/56/53 58/95/53 63/98/53
f 51/61/54 22/60/54 62/97/54 66/92/54
f 13/40/55 48/33/55 75/46/55 68/55/55
f 16/89/56 49/45/56 74/58/56 70/86/56
f 14/44/57 39/37/57 73/50/57 67/59/57
f 15/36/58 32/41/58 72/54/58 69/51/58
f 49/45/59 14/44/59 67/59/59 74/58/59
f 32/41/60 13/40/60 68/55/60 72/54/60
f 39/37/61 15/36/61 69/51/61 73/50/61
f 48/33/62 17/32/62 71/47/62 75/46/62
f 24/68/63 53/77/63 84/30/63 76/39/63
f 26/85/64 52/65/64 83/42/64 78/88/64
f 23/64/65 41/73/65 82/34/65 80/43/65
f 25/72/66 34/69/66 81/38/66 77/35/66
f 52/65/67 23/64/67 80/43/67 83/42/67
f 34/69/68 24/68/68 76/39/68 81/38/68
f 41/73/69 25/72/69 77/35/69 82/34/69
f 53/77/70 27/76/70 79/31/70 84/30/70
f 123/101/71 128/102/71 93/62/71 88/84/71
f 121/103/72 127/104/72 92/74/72 86/67/72
f 129/105/73 126/106/73 91/70/73 85/63/73
f 122/107/74 125/108/74 90/66/74 87/71/74
f 127/104/75 124/109/75 89/75/75 92/74/75
f 126/106/76 122/107/76 87/71/76 91/70/76
f 125/108/77 121/103/77 86/67/77 90/66/77
f 128/102/78 129/105/78 85/63/78 93/62/78
f 60/93/79 66/92/79 101/1/79 96/90/79
f 58/95/80 65/94/80 100/26/80 94/6/80
f 62/97/81 64/96/81 99/12/81 102/2/81
f 59/99/82 63/98/82 98/5/82 95/13/82
f 65/94/80 61/100/80 97/27/80 100/26/80
f 64/96/83 59/99/83 95/13/83 99/12/83
f 63/98/84 58/95/84 94/6/84 98/5/84
f 66/92/85 62/97/85 102/2/85 101/1/85
f 120/110/86 112/111/86 103/112/86 111/113/86
f 117/114/87 113/115/87 104/116/87 108/117/87
f 118/118/88 114/119/88 105/120/88 109/121/88
f 119/122/89 116/123/89 107/124/89 110/125/89
f 114/119/90 117/114/90 108/117/90 105/120/90
f 112/111/91 118/118/91 109/121/91 103/112/91
f 113/115/92 119/122/92 110/125/92 104/116/92
f 115/126/93 120/110/93 111/113/93 106/127/93
f 7/10/94 45/9/94 120/110/94 115/126/94
f 1/80/95 43/79/95 119/122/95 113/115/95
f 2/11/96 35/83/96 118/118/96 112/111/96
f 5/21/97 28/20/97 117/114/97 114/119/97
f 43/79/98 10/78/98 116/123/98 119/122/98
f 35/83/99 5/21/99 114/119/99 118/118/99
f 28/20/100 1/80/100 113/115/100 117/114/100
f 45/9/101 2/11/101 112/111/101 120/110/101
f 111/113/102 103/112/102 129/105/102 128/102/102
f 108/117/103 104/116/103 121/103/103 125/108/103
f 109/121/104 105/120/104 122/107/104 126/106/104
f 110/125/105 107/124/105 124/109/105 127/104/105
f 105/120/106 108/117/106 125/108/106 122/107/106
f 103/112/107 109/121/107 126/106/107 129/105/107
f 104/116/108 110/125/108 127/104/108 121/103/108
f 106/127/109 111/113/109 128/102/109 123/101/109
f 138/78/110 132/79/110 44/79/110 142/78/110
f 136/9/111 137/10/111 141/10/111 140/9/111
f 133/80/112 134/20/112 30/20/112 38/80/112
f 134/20/113 135/21/113 11/21/113 30/20/113
f 132/79/114 133/80/114 38/80/114 44/79/114
f 135/21/115 130/83/115 57/83/115 11/21/115
f 131/11/116 136/9/116 140/9/116 56/11/116
f 130/83/117 131/11/117 56/11/117 57/83/117
f 146/128/118 44/129/118 38/80/118 30/20/118
f 147/130/118 139/131/118 11/21/118 57/83/118
f 139/131/118 146/128/118 30/20/118 11/21/118
f 140/132/118 147/130/118 57/83/118 56/11/118
f 141/133/118 144/134/118 147/130/118 140/132/118
f 143/135/118 145/136/118 146/128/118 139/131/118
f 144/134/118 143/135/118 139/131/118 147/130/118
f 145/136/118 142/137/118 44/129/118 146/128/118
f 17/32/119 48/33/119 149/33/119 148/32/119
f 79/138/120 148/138/120 149/138/120 84/138/120
f 84/138/121 149/138/121 48/138/121
f 27/76/122 53/77/122 151/77/122 150/76/122
f 53/77/123 92/74/123 151/77/123
f 89/138/124 150/138/124 151/138/124 92/138/124
f 88/84/125 93/62/125 153/62/125 152/84/125
f 153/62/126 93/62/126 128/102/126
f 153/138/127 128/138/127 123/138/127 152/138/127
f 123/101/128 128/102/128 155/102/128 154/101/128
f 154/101/129 155/102/129 157/102/129 156/101/129
f 128/102/130 111/113/130 155/102/130
f 120/110/131 155/102/131 111/113/131
f 155/102/132 120/110/132 157/102/132
f 45/9/133 120/110/133 157/102/133
f 157/102/134 136/9/134 45/9/134
f 136/138/135 157/138/135 156/138/135 137/138/135
f 19/52/136 40/53/136 160/53/136 158/52/136
f 40/53/137 22/60/137 159/60/137 160/53/137
f 69/51/138 19/52/138 158/52/138
f 69/138/139 158/138/139 160/138/139 73/138/139
f 159/60/140 22/60/140 67/59/140
f 73/138/141 160/138/141 159/138/141 67/138/141
f 25/72/142 41/73/142 163/73/142 162/72/142
f 41/73/143 23/64/143 161/64/143 163/73/143
f 77/35/144 25/72/144 162/72/144
f 77/138/145 162/138/145 163/138/145 82/138/145
f 82/138/146 163/138/146 161/138/146 80/138/146
f 80/138/147 161/138/147 23/138/147
f 241/1/148 192/4/148 167/3/148 242/2/148
f 238/5/149 181/8/149 166/7/149 236/6/149
f 195/9/3 270/9/3 137/10/3 7/10/3
f 165/11/150 265/11/150 270/9/150 195/9/150
f 239/12/151 187/15/151 169/14/151 237/13/151
f 205/16/6 37/19/6 12/18/6 197/17/6
f 180/20/152 268/20/152 269/21/152 168/21/152
f 204/22/8 31/25/8 8/24/8 196/23/8
f 240/26/9 196/29/9 8/28/9 97/27/9
f 228/30/9 198/33/9 17/32/9 79/31/9
f 226/34/153 189/37/153 173/36/153 223/35/153
f 225/38/154 183/41/154 171/40/154 222/39/154
f 227/42/155 199/45/155 172/44/155 224/43/155
f 221/46/156 200/49/156 21/48/156 71/47/156
f 219/50/157 190/53/157 175/52/157 217/51/157
f 218/54/158 184/57/158 174/56/158 216/55/158
f 220/58/159 201/61/159 176/60/159 215/59/159
f 235/62/160 202/65/160 177/64/160 229/63/160
f 232/66/161 185/69/161 178/68/161 230/67/161
f 233/70/162 191/73/162 179/72/162 231/71/162
f 234/74/20 203/77/20 27/76/20 89/75/20
f 231/71/163 179/72/163 185/69/163 232/66/163
f 217/51/164 175/52/164 184/57/164 218/54/164
f 223/35/165 173/36/165 183/41/165 225/38/165
f 197/17/24 12/18/24 31/25/24 204/22/24
f 10/78/25 138/78/25 266/79/25 193/79/25
f 237/13/166 169/14/166 181/8/166 238/5/166
f 229/63/167 177/64/167 191/73/167 233/70/167
f 215/59/168 176/60/168 190/53/168 219/50/168
f 224/43/169 172/44/169 189/37/169 226/34/169
f 193/79/170 266/79/170 267/80/170 164/80/170
f 192/81/31 9/82/31 37/19/31 205/16/31
f 242/2/171 167/3/171 187/15/171 239/12/171
f 186/83/172 264/83/172 265/11/172 165/11/172
f 167/3/173 192/81/173 205/16/173 187/15/173
f 169/14/174 197/17/174 204/22/174 181/8/174
f 230/67/175 178/68/175 203/77/175 234/74/175
f 88/84/37 26/85/37 202/65/37 235/62/37
f 70/86/38 20/87/38 201/61/38 220/58/38
f 216/55/176 174/56/176 200/49/176 221/46/176
f 78/88/40 16/89/40 199/45/40 227/42/40
f 222/39/177 171/40/177 198/33/177 228/30/177
f 236/6/9 166/7/9 196/29/9 240/26/9
f 181/8/178 204/22/178 196/23/178 166/7/178
f 187/15/179 205/16/179 197/17/179 169/14/179
f 96/90/44 9/91/44 192/4/44 241/1/44
f 168/21/180 269/21/180 264/83/180 186/83/180
f 164/80/181 267/80/181 268/20/181 180/20/181
f 20/87/47 60/93/47 214/92/47 201/61/47
f 174/56/182 208/95/182 213/94/182 200/49/182
f 176/60/183 210/97/183 212/96/183 190/53/183
f 175/52/184 209/99/184 211/98/184 184/57/184
f 200/49/185 213/94/185 61/100/185 21/48/185
f 190/53/186 212/96/186 209/99/186 175/52/186
f 184/57/187 211/98/187 208/95/187 174/56/187
f 201/61/188 214/92/188 210/97/188 176/60/188
f 171/40/189 216/55/189 221/46/189 198/33/189
f 16/89/56 70/86/56 220/58/56 199/45/56
f 172/44/190 215/59/190 219/50/190 189/37/190
f 173/36/191 217/51/191 218/54/191 183/41/191
f 199/45/192 220/58/192 215/59/192 172/44/192
f 183/41/193 218/54/193 216/55/193 171/40/193
f 189/37/194 219/50/194 217/51/194 173/36/194
f 198/33/195 221/46/195 71/47/195 17/32/195
f 178/68/196 222/39/196 228/30/196 203/77/196
f 26/85/64 78/88/64 227/42/64 202/65/64
f 177/64/197 224/43/197 226/34/197 191/73/197
f 179/72/198 223/35/198 225/38/198 185/69/198
f 202/65/199 227/42/199 224/43/199 177/64/199
f 185/69/200 225/38/200 222/39/200 178/68/200
f 191/73/201 226/34/201 223/35/201 179/72/201
f 203/77/70 228/30/70 79/31/70 27/76/70
f 123/101/71 88/84/71 235/62/71 262/102/71
f 257/103/202 230/67/202 234/74/202 261/104/202
f 263/105/203 229/63/203 233/70/203 260/106/203
f 258/107/204 231/71/204 232/66/204 259/108/204
f 261/104/75 234/74/75 89/75/75 124/109/75
f 260/106/205 233/70/205 231/71/205 258/107/205
f 259/108/206 232/66/206 230/67/206 257/103/206
f 262/102/207 235/62/207 229/63/207 263/105/207
f 60/93/79 96/90/79 241/1/79 214/92/79
f 208/95/80 236/6/80 240/26/80 213/94/80
f 210/97/208 242/2/208 239/12/208 212/96/208
f 209/99/209 237/13/209 238/5/209 211/98/209
f 213/94/80 240/26/80 97/27/80 61/100/80
f 212/96/210 239/12/210 237/13/210 209/99/210
f 211/98/211 238/5/211 236/6/211 208/95/211
f 214/92/212 241/1/212 242/2/212 210/97/212
f 256/110/213 249/113/213 243/112/213 250/111/213
f 253/114/214 246/117/214 244/116/214 251/115/214
f 254/118/215 247/121/215 245/120/215 252/119/215
f 255/122/89 248/125/89 107/124/89 116/123/89
f 252/119/216 245/120/216 246/117/216 253/114/216
f 250/111/217 243/112/217 247/121/217 254/118/217
f 251/115/218 244/116/218 248/125/218 255/122/218
f 115/126/93 106/127/93 249/113/93 256/110/93
f 7/10/94 115/126/94 256/110/94 195/9/94
f 164/80/219 251/115/219 255/122/219 193/79/219
f 165/11/220 250/111/220 254/118/220 186/83/220
f 168/21/221 252/119/221 253/114/221 180/20/221
f 193/79/98 255/122/98 116/123/98 10/78/98
f 186/83/222 254/118/222 252/119/222 168/21/222
f 180/20/223 253/114/223 251/115/223 164/80/223
f 195/9/224 256/110/224 250/111/224 165/11/224
f 249/113/225 262/102/225 263/105/225 243/112/225
f 246/117/226 259/108/226 257/103/226 244/116/226
f 247/121/227 260/106/227 258/107/227 245/120/227
f 248/125/105 261/104/105 124/109/105 107/124/105
f 245/120/228 258/107/228 259/108/228 246/117/228
f 243/112/229 263/105/229 260/106/229 247/121/229
f 244/116/230 257/103/230 261/104/230 248/125/230
f 106/127/109 123/101/109 262/102/109 249/113/109
f 138/78/110 142/78/110 194/79/110 266/79/110
f 270/9/111 272/9/111 141/10/111 137/10/111
f 267/80/231 188/80/231 182/20/231 268/20/231
f 268/20/232 182/20/232 170/21/232 269/21/232
f 266/79/233 194/79/233 188/80/233 267/80/233
f 269/21/234 170/21/234 207/83/234 264/83/234
f 265/11/235 206/11/235 272/9/235 270/9/235
f 264/83/236 207/83/236 206/11/236 265/11/236
f 273/128/118 182/20/118 188/80/118 194/129/118
f 274/130/118 207/83/118 170/21/118 271/131/118
f 271/131/118 170/21/118 182/20/118 273/128/118
f 272/132/118 206/11/118 207/83/118 274/130/118
f 141/133/237 272/132/237 274/130/237 144/134/237
f 143/135/118 271/131/118 273/128/118 145/136/118
f 144/134/118 274/130/118 271/131/118 143/135/118
f 145/136/118 273/128/118 194/129/118 142/137/118
f 17/32/238 148/32/238 275/33/238 198/33/238
f 79/138/239 228/138/239 275/138/239 148/138/239
f 228/138/240 198/138/240 275/138/240
f 27/76/241 150/76/241 276/77/241 203/77/241
f 203/77/242 276/77/242 234/74/242
f 89/138/243 234/138/243 276/138/243 150/138/243
f 88/84/244 152/84/244 277/62/244 235/62/244
f 277/62/245 262/102/245 235/62/245
f 277/138/246 152/138/246 123/138/246 262/138/246
f 123/101/247 154/101/247 278/102/247 262/102/247
f 154/101/248 156/101/248 279/102/248 278/102/248
f 262/102/249 278/102/249 249/113/249
f 256/110/250 249/113/250 278/102/250
f 278/102/251 279/102/251 256/110/251
f 195/9/252 279/102/252 256/110/252
f 279/102/253 195/9/253 270/9/253
f 270/138/254 137/138/254 156/138/254 279/138/254
f 175/52/255 280/52/255 282/53/255 190/53/255
f 190/53/256 282/53/256 281/60/256 176/60/256
f 217/51/257 280/52/257 175/52/257
f 217/138/258 219/138/258 282/138/258 280/138/258
f 281/60/259 215/59/259 176/60/259
f 219/138/260 215/138/260 281/138/260 282/138/260
f 179/72/261 284/72/261 285/73/261 191/73/261
f 191/73/262 285/73/262 283/64/262 177/64/262
f 223/35/263 284/72/263 179/72/263
f 223/138/264 226/138/264 285/138/264 284/138/264
f 226/138/265 224/138/265 283/138/265 285/138/265
f 224/138/266 177/138/266 283/138/266
