# Blender 4.4.1
# www.blender.org
mtllib rayfish.mtl
o Cube
v 0.000000 -0.206927 -0.551430
v 0.000000 0.196403 1.069540
v 0.000000 -0.206927 0.894055
v 0.000000 0.206549 -0.742821
v 0.000000 -0.206927 0.075584
v 0.000000 0.367991 0.043335
v 0.000000 0.054593 1.512089
v 0.000000 -0.206927 0.389092
v 0.000000 0.367991 0.436413
v 0.000000 -0.206927 -0.237923
v 0.000000 0.312559 -0.349743
v 0.000000 -0.206927 0.646503
v 0.000000 0.312559 0.759158
v 0.000000 0.105700 1.430287
v 0.000000 -0.136526 1.430287
v 0.000000 0.107000 -1.000000
v 0.000000 -0.093941 -1.000000
v 0.553476 0.206549 -0.742821
v 0.627015 -0.206927 -0.551430
v 0.393142 0.121429 1.069540
v 0.646012 -0.248256 0.894055
v 1.881118 -0.178401 0.130471
v 2.233870 0.184144 0.257353
v 0.613059 -0.039686 1.115872
v 0.610587 0.001132 -0.889841
v 2.874347 0.301209 0.469908
v 0.689458 -0.243984 0.389092
v 0.692066 0.183937 0.436413
v 1.584695 -0.059005 0.655497
v 0.737022 0.193892 -0.349743
v 0.770204 -0.236044 -0.237923
v 0.882527 -0.016072 -0.520259
v 0.667735 -0.246120 0.646503
v 0.584576 0.181259 0.759158
v 1.070460 -0.060682 0.861906
v 0.587670 0.095190 1.099095
v 0.596766 0.094600 -0.861216
v 2.801358 0.322974 0.466478
v 1.517944 0.045968 0.649142
v 0.850209 0.118269 -0.500000
v 1.035199 0.046661 0.850879
v 0.596766 -0.092028 -0.861216
v 2.817207 0.266166 0.469031
v 0.610692 -0.172406 1.099095
v 1.579703 -0.160948 0.649142
v 0.874890 -0.149327 -0.500000
v 1.057259 -0.164920 0.850879
v 0.156623 0.105700 1.410225
v 0.156623 -0.136526 1.410225
v 0.246819 0.107000 -1.000000
v 0.246819 -0.093941 -1.000000
v 0.735115 0.188915 0.043335
v 0.278579 -0.002315 1.454269
v 0.729831 -0.240014 0.075584
v 1.256382 -0.278471 -0.081169
v 1.477796 0.099136 -0.153204
v 2.012443 -0.004368 -0.115796
v 1.948454 0.061983 -0.107662
v 1.985322 -0.070163 -0.101723
v 1.428292 0.089899 0.239874
v 2.263588 0.058084 0.547938
v 1.216899 -0.285839 0.232338
v 2.193915 0.123022 0.541048
v 2.230783 -0.009125 0.546987
v 1.305497 -0.194708 -0.355268
v 1.421859 0.003738 -0.297929
v 1.397584 -0.093919 -0.341698
v 1.453044 0.094517 0.043335
v 1.639814 -0.164419 0.275100
v 1.203535 -0.254586 0.454531
v 1.236640 -0.282155 0.075584
v -0.553476 0.206549 -0.742821
v -0.627015 -0.206927 -0.551430
v -0.393142 0.121429 1.069540
v -0.646012 -0.248256 0.894055
v -1.881118 -0.178401 0.130471
v -2.233870 0.184144 0.257353
v -0.613059 -0.039686 1.115872
v -0.610587 0.001132 -0.889841
v -2.874347 0.301209 0.469908
v -0.689458 -0.243984 0.389092
v -0.692066 0.183937 0.436413
v -1.584695 -0.059005 0.655497
v -0.737022 0.193892 -0.349743
v -0.770204 -0.236044 -0.237923
v -0.882527 -0.016072 -0.520259
v -0.667735 -0.246120 0.646503
v -0.584576 0.181259 0.759158
v -1.070460 -0.060682 0.861906
v -0.587670 0.095190 1.099095
v -0.596766 0.094600 -0.861216
v -2.801358 0.322974 0.466478
v -1.517944 0.045968 0.649142
v -0.850209 0.118269 -0.500000
v -1.035199 0.046661 0.850879
v -0.596766 -0.092028 -0.861216
v -2.817207 0.266166 0.469031
v -0.610692 -0.172406 1.099095
v -1.579703 -0.160948 0.649142
v -0.874890 -0.149327 -0.500000
v -1.057259 -0.164920 0.850879
v -0.156623 0.105700 1.410225
v -0.156623 -0.136526 1.410225
v -0.246819 0.107000 -1.000000
v -0.246819 -0.093941 -1.000000
v -0.735115 0.188915 0.043335
v -0.278579 -0.002315 1.454269
v -0.729831 -0.240014 0.075584
v -1.256382 -0.278471 -0.081169
v -1.477796 0.099136 -0.153204
v -2.012443 -0.004368 -0.115796
v -1.948454 0.061983 -0.107662
v -1.985322 -0.070163 -0.101723
v -1.428292 0.089899 0.239874
v -2.263588 0.058084 0.547938
v -1.216899 -0.285839 0.232338
v -2.193915 0.123022 0.541048
v -2.230783 -0.009125 0.546987
v -1.305497 -0.194708 -0.355268
v -1.421859 0.003738 -0.297929
v -1.397584 -0.093919 -0.341698
v -1.453044 0.094517 0.043335
v -1.639814 -0.164419 0.275100
v -1.203535 -0.254586 0.454531
v -1.236640 -0.282155 0.075584
v 0.533660 -0.038672 -1.062058
v 0.347039 0.057508 -1.172217
v 0.347039 -0.044449 -1.172217
v -0.533660 -0.038672 -1.062058
v -0.347039 0.057508 -1.172217
v -0.347039 -0.044449 -1.172217
v 0.000000 -0.079576 1.512089
v 0.154306 -0.005236 1.525373
v -0.154306 -0.005236 1.525373
v 0.000000 0.032644 2.018515
v 0.000000 -0.055117 2.018515
v 0.100932 -0.006491 2.027204
v -0.100932 -0.006491 2.027204
v 0.000000 0.022644 2.623731
v 0.000000 -0.043975 2.623731
v 0.076617 -0.007063 2.630327
v -0.076617 -0.007063 2.630327
v 0.000000 0.009912 3.224460
v 0.000000 -0.029786 3.224460
v 0.045655 -0.007791 3.228390
v -0.045655 -0.007791 3.228390
v 0.000000 -0.003232 3.628406
v 0.000000 -0.015140 3.628406
v 0.013696 -0.008542 3.629585
v -0.013696 -0.008542 3.629585
vn 0.1954 0.9261 0.3228
vn 0.1163 -0.4035 0.9076
vn 0.4849 0.8241 -0.2929
vn -0.0612 -0.9981 -0.0070
vn -0.0414 -0.9991 -0.0090
vn -0.1181 0.9740 0.1932
vn 0.1979 0.9782 -0.0623
vn 0.2130 -0.2045 0.9554
vn 0.1464 -0.9227 -0.3565
vn 0.7722 -0.2032 -0.6020
vn -0.0471 -0.9877 0.1490
vn 0.3646 -0.1101 0.9246
vn 0.1624 0.9689 0.1865
vn 0.1592 -0.9872 -0.0031
vn 0.2465 0.9689 0.0196
vn 0.3733 -0.2698 -0.8876
vn 0.0907 0.9862 -0.1383
vn -0.0208 -0.9989 -0.0416
vn 0.1197 0.8071 -0.5782
vn 0.1804 -0.9120 0.3684
vn 0.1395 0.9710 0.1944
vn 0.1923 0.9517 0.2392
vn 0.4798 -0.1333 0.8672
vn -0.0561 -0.9984 -0.0065
vn 0.2379 0.9630 0.1263
vn 0.4863 0.2189 0.8460
vn 0.2804 0.3507 -0.8935
vn 0.3667 0.2496 0.8963
vn 0.0502 0.1991 0.9787
vn 0.7787 0.2784 -0.5623
vn 0.2137 -0.9596 0.1832
vn 0.2606 -0.9354 -0.2392
vn 0.0351 -0.9893 0.1415
vn 0.2731 -0.9179 -0.2881
vn 0.2082 -0.8774 0.4322
vn 0.1140 0.9856 0.1247
vn 0.3271 -0.7755 0.5399
vn 0.5530 -0.4213 0.7188
vn -0.2725 0.8160 0.5098
vn 0.2678 0.7470 -0.6085
vn -0.0000 0.9326 -0.3610
vn -0.0000 -0.9697 -0.2443
vn 0.1257 0.9918 0.0218
vn 0.1326 0.9907 0.0314
vn 0.5751 0.5092 0.6403
vn -0.1163 -0.4035 0.9076
vn -0.0494 -0.9987 -0.0095
vn -0.0807 -0.9964 -0.0265
vn 0.4758 -0.8594 -0.1871
vn 0.3316 0.5562 -0.7620
vn -0.1648 0.9669 -0.1948
vn 0.5989 -0.5736 -0.5588
vn -0.0378 -0.9899 0.1369
vn 0.1294 0.1799 0.9751
vn 0.1711 -0.0807 0.9819
vn -0.0924 0.9877 0.1263
vn 0.1100 0.9135 -0.3917
vn -0.2905 0.9430 0.1623
vn 0.2528 -0.9154 -0.3133
vn 0.4260 -0.9047 0.0100
vn 0.3014 -0.1553 -0.9408
vn 0.3599 0.2598 -0.8961
vn 0.2708 0.8547 -0.4429
vn 0.0077 -0.9536 -0.3010
vn -0.1164 0.9932 0.0087
vn 0.1458 0.9866 0.0740
vn 0.1174 -0.9505 0.2877
vn 0.2338 -0.9712 0.0466
vn 0.1064 -0.9606 0.2566
vn 0.2352 -0.9682 0.0854
vn -0.0850 -0.9960 -0.0271
vn 0.3589 0.3214 -0.8763
vn 0.1448 -0.9701 -0.1945
vn -0.0000 -0.0000 -1.0000
vn -0.1954 0.9261 0.3228
vn -0.1114 0.4805 0.8699
vn -0.4849 0.8241 -0.2929
vn 0.0612 -0.9981 -0.0070
vn 0.0414 -0.9991 -0.0090
vn 0.1181 0.9740 0.1932
vn -0.1979 0.9782 -0.0623
vn -0.2130 -0.2045 0.9554
vn -0.1464 -0.9227 -0.3565
vn -0.7722 -0.2032 -0.6020
vn 0.0471 -0.9877 0.1490
vn -0.3646 -0.1101 0.9246
vn -0.1624 0.9689 0.1865
vn -0.1592 -0.9872 -0.0031
vn -0.2465 0.9689 0.0196
vn -0.3733 -0.2698 -0.8876
vn -0.0907 0.9862 -0.1383
vn 0.0208 -0.9989 -0.0416
vn -0.1197 0.8071 -0.5782
vn -0.1804 -0.9120 0.3684
vn -0.1395 0.9710 0.1944
vn -0.1923 0.9517 0.2392
vn -0.4798 -0.1333 0.8672
vn 0.0561 -0.9984 -0.0065
vn -0.2379 0.9630 0.1263
vn -0.4863 0.2189 0.8460
vn -0.2804 0.3507 -0.8935
vn -0.3667 0.2496 0.8963
vn -0.0502 0.1991 0.9787
vn -0.7787 0.2784 -0.5623
vn -0.2137 -0.9596 0.1832
vn -0.2606 -0.9354 -0.2392
vn -0.0351 -0.9893 0.1415
vn -0.2731 -0.9179 -0.2881
vn -0.2082 -0.8774 0.4322
vn -0.1140 0.9856 0.1247
vn -0.3271 -0.7755 0.5399
vn -0.5530 -0.4213 0.7188
vn -0.3582 0.9328 0.0404
vn -0.2678 0.7470 -0.6085
vn -0.1257 0.9918 0.0218
vn -0.1326 0.9907 0.0314
vn -0.5751 0.5092 0.6403
vn 0.1114 0.4805 0.8699
vn 0.0494 -0.9987 -0.0095
vn 0.0807 -0.9964 -0.0265
vn -0.4758 -0.8594 -0.1871
vn -0.3316 0.5562 -0.7620
vn 0.1648 0.9669 -0.1948
vn -0.5989 -0.5736 -0.5588
vn 0.0378 -0.9899 0.1369
vn -0.1294 0.1799 0.9751
vn -0.1711 -0.0807 0.9819
vn 0.0924 0.9877 0.1263
vn -0.1100 0.9135 -0.3917
vn 0.2905 0.9430 0.1623
vn -0.2528 -0.9154 -0.3133
vn -0.4260 -0.9047 0.0100
vn -0.3014 -0.1553 -0.9408
vn -0.3599 0.2598 -0.8961
vn -0.2708 0.8547 -0.4429
vn -0.0077 -0.9536 -0.3010
vn 0.1164 0.9932 0.0087
vn -0.1458 0.9866 0.0740
vn -0.1174 -0.9505 0.2877
vn -0.2338 -0.9712 0.0466
vn -0.1064 -0.9606 0.2566
vn -0.2352 -0.9682 0.0854
vn 0.0850 -0.9960 -0.0271
vn -0.3589 0.3214 -0.8763
vn -0.1448 -0.9701 -0.1945
vn -0.8643 -0.0000 -0.5030
vn 0.5083 -0.0000 -0.8612
vn -0.5083 -0.0000 -0.8612
vn 0.4081 0.8901 -0.2032
vn 0.8643 -0.0000 -0.5030
vn 0.9056 -0.2415 -0.3487
vn -0.4081 0.8901 -0.2032
vn -0.1202 -0.9494 -0.2900
vn -0.9056 -0.2415 -0.3487
vn 0.1202 -0.9494 -0.2900
vn 0.2725 0.8160 0.5098
vn 0.4328 -0.9013 0.0166
vn -0.4306 -0.9015 0.0435
vn 0.4306 -0.9015 0.0435
vn 0.3582 0.9328 0.0404
vn -0.3600 0.9328 0.0198
vn -0.3603 0.9327 0.0154
vn -0.4328 -0.9013 0.0166
vn 0.3603 0.9327 0.0154
vn -0.4315 -0.9015 0.0327
vn -0.4324 -0.9014 0.0213
vn 0.3600 0.9328 0.0198
vn 0.4324 -0.9014 0.0213
vn -0.0000 -0.0000 1.0000
vn 0.3591 0.9328 0.0304
vn 0.4315 -0.9015 0.0327
vn -0.3591 0.9328 0.0304
vt 0.750000 0.718750
vt 0.750000 0.750000
vt 0.875000 0.750000
vt 0.875000 0.718750
vt 0.437500 0.937500
vt 0.500000 0.966088
vt 0.437500 0.875000
vt 0.562500 0.187500
vt 0.562500 0.250000
vt 0.625000 0.250000
vt 0.625000 0.187500
vt 0.125000 0.718750
vt 0.125000 0.750000
vt 0.250000 0.750000
vt 0.250000 0.718750
vt 0.125000 0.562500
vt 0.190998 0.625000
vt 0.250000 0.625000
vt 0.250000 0.562500
vt 0.562500 0.093750
vt 0.625000 0.125000
vt 0.625000 0.093750
vt 0.750000 0.562500
vt 0.750000 0.625000
vt 0.809002 0.625000
vt 0.875000 0.562500
vt 0.437500 0.093750
vt 0.437500 0.125000
vt 0.500000 0.125000
vt 0.500000 0.093750
vt 0.375000 0.250000
vt 0.437500 0.312500
vt 0.437500 0.250000
vt 0.437500 0.187500
vt 0.500000 0.250000
vt 0.500000 0.187500
vt 0.375000 0.875000
vt 0.375000 1.000000
vt 0.437500 0.031250
vt 0.437500 0.062500
vt 0.500000 0.062500
vt 0.500000 0.031250
vt 0.562500 0.031250
vt 0.562500 0.062500
vt 0.625000 0.062500
vt 0.625000 0.031250
vt 0.125000 0.625000
vt 0.125000 0.656250
vt 0.157999 0.625000
vt 0.750000 0.687500
vt 0.875000 0.687500
vt 0.437500 0.156250
vt 0.437500 0.173785
vt 0.500000 0.170962
vt 0.500000 0.156250
vt 0.750000 0.500000
vt 0.875000 0.500000
vt 0.125000 0.500000
vt 0.250000 0.500000
vt 0.562500 0.156250
vt 0.562500 0.168351
vt 0.625000 0.156250
vt 0.437500 1.000000
vt 0.625000 1.000000
vt 0.625000 0.875000
vt 0.562500 0.875000
vt 0.562500 0.937500
vt 0.562500 0.000000
vt 0.625000 0.000000
vt 0.437500 0.000000
vt 0.500000 0.000000
vt 0.125000 0.687500
vt 0.250000 0.687500
vt 0.562500 0.125000
vt 0.375000 0.000000
vt 0.375000 0.031250
vt 0.375000 0.156250
vt 0.375000 0.062500
vt 0.411877 0.062500
vt 0.375000 0.187500
vt 0.375000 0.093750
vt 0.375000 0.125000
vt 0.402430 0.093750
vt 0.562500 1.000000
vt 0.500000 1.000000
vt 0.562500 0.312500
vt 0.562500 0.375000
vt 0.625000 0.375000
vt 0.375000 0.375000
vt 0.437500 0.375000
vt 0.842001 0.625000
vt 0.875000 0.593750
vt 0.875000 0.656250
vt 0.125000 0.593750
vt 0.875000 0.625000
s 0
usemtl Material
f 13/1/1 2/2/1 20/3/1 34/4/1
f 49/5/2 53/6/2 15/7/2
f 40/8/3 37/9/3 18/10/3 30/11/3
f 33/12/4 21/13/4 3/14/4 12/15/4
f 31/16/5 54/17/5 5/18/5 10/19/5
f 63/20/6 23/21/6 60/22/6
f 11/23/7 6/24/7 52/25/7 30/26/7
f 64/27/8 43/28/8 26/29/8 61/30/8
f 19/31/9 51/32/9 42/33/9
f 46/34/10 42/33/10 25/35/10 32/36/10
f 3/37/11 21/38/11 49/5/11 15/7/11
f 47/39/12 45/40/12 29/41/12 35/42/12
f 41/43/13 39/44/13 28/45/13 34/46/13
f 22/47/14 62/48/14 71/49/14
f 6/24/15 9/50/15 28/51/15 52/25/15
f 59/52/16 65/53/16 67/54/16 57/55/16
f 4/56/17 11/23/17 30/26/17 18/57/17
f 19/58/18 31/16/18 10/19/18 1/59/18
f 58/60/19 66/61/19 56/62/19
f 21/38/20 44/63/20 49/5/20
f 20/64/21 2/65/21 14/66/21 48/67/21
f 36/68/22 41/43/22 34/46/22 20/69/22
f 44/70/23 47/39/23 35/42/23 24/71/23
f 27/72/24 33/12/24 12/15/24 8/73/24
f 9/50/25 13/1/25 34/4/25 28/51/25
f 24/71/26 35/42/26 41/43/26 36/68/26
f 57/55/27 67/54/27 66/61/27 58/60/27
f 35/42/28 29/41/28 39/44/28 41/43/28
f 61/30/29 26/29/29 38/74/29 63/20/29
f 32/36/30 25/35/30 37/9/30 40/8/30
f 21/75/31 33/76/31 47/39/31 44/70/31
f 55/77/32 65/53/32 59/52/32
f 33/76/33 27/78/33 70/79/33 47/39/33
f 31/80/34 19/31/34 42/33/34 46/34/34
f 62/81/35 22/82/35 69/83/35
f 36/84/36 20/64/36 48/67/36
f 15/7/37 53/6/37 133/6/37 132/7/37
f 44/63/38 24/85/38 53/6/38 49/5/38
f 14/66/39 107/6/39 134/6/39 7/66/39
f 50/86/40 18/10/40 37/9/40
f 16/87/41 4/88/41 18/10/41 50/86/41
f 51/32/42 19/31/42 1/89/42 17/90/42
f 52/25/43 68/91/43 56/92/43 30/26/43
f 28/51/44 60/93/44 68/91/44 52/25/44
f 53/6/45 24/85/45 36/84/45 48/67/45
f 107/6/46 103/5/46 15/7/46
f 27/72/47 8/73/47 5/18/47 54/17/47
f 54/17/48 31/16/48 55/94/48 71/49/48
f 22/82/49 59/52/49 43/28/49
f 26/29/50 57/55/50 58/60/50 38/74/50
f 38/74/51 58/60/51 23/21/51
f 43/28/52 59/52/52 57/55/52 26/29/52
f 27/78/53 62/81/53 70/79/53
f 29/41/54 61/30/54 63/20/54 39/44/54
f 45/40/55 64/27/55 61/30/55 29/41/55
f 39/44/56 63/20/56 60/22/56
f 58/60/57 56/62/57 23/21/57
f 23/21/58 63/20/58 38/74/58
f 59/52/59 22/82/59 55/77/59
f 22/82/60 43/28/60 64/27/60
f 65/53/61 46/34/61 32/36/61 67/54/61
f 67/54/62 32/36/62 40/8/62 66/61/62
f 66/61/63 40/8/63 30/11/63 56/62/63
f 65/53/64 55/77/64 31/80/64 46/34/64
f 60/93/65 23/95/65 68/91/65
f 68/91/65 23/95/65 56/92/65
f 60/22/66 28/45/66 39/44/66
f 22/82/67 64/27/67 69/83/67
f 69/83/68 64/27/68 45/40/68
f 70/79/69 45/40/69 47/39/69
f 62/81/70 69/83/70 45/40/70 70/79/70
f 55/94/14 22/47/14 71/49/14
f 62/48/71 27/72/71 54/17/71 71/49/71
f 37/9/72 25/35/72 50/86/72
f 51/32/73 128/32/73 126/35/73
f 16/87/74 50/86/74 51/32/74 17/90/74
f 13/1/75 88/4/75 74/3/75 2/2/75
f 14/66/76 102/67/76 107/6/76
f 94/8/77 84/11/77 72/10/77 91/9/77
f 87/12/78 12/15/78 3/14/78 75/13/78
f 85/16/79 10/19/79 5/18/79 108/17/79
f 117/20/80 114/22/80 77/21/80
f 11/23/81 84/26/81 106/25/81 6/24/81
f 118/27/82 115/30/82 80/29/82 97/28/82
f 73/31/83 96/33/83 105/32/83
f 100/34/84 86/36/84 79/35/84 96/33/84
f 3/37/85 15/7/85 103/5/85 75/38/85
f 101/39/86 89/42/86 83/41/86 99/40/86
f 95/43/87 88/46/87 82/45/87 93/44/87
f 76/47/88 125/49/88 116/48/88
f 6/24/89 106/25/89 82/51/89 9/50/89
f 113/52/90 111/55/90 121/54/90 119/53/90
f 4/56/91 72/57/91 84/26/91 11/23/91
f 73/58/92 1/59/92 10/19/92 85/16/92
f 112/60/93 110/62/93 120/61/93
f 75/38/94 103/5/94 98/63/94
f 74/64/95 102/67/95 14/66/95 2/65/95
f 90/68/96 74/69/96 88/46/96 95/43/96
f 98/70/97 78/71/97 89/42/97 101/39/97
f 81/72/98 8/73/98 12/15/98 87/12/98
f 9/50/99 82/51/99 88/4/99 13/1/99
f 78/71/100 90/68/100 95/43/100 89/42/100
f 111/55/101 112/60/101 120/61/101 121/54/101
f 89/42/102 95/43/102 93/44/102 83/41/102
f 115/30/103 117/20/103 92/74/103 80/29/103
f 86/36/104 94/8/104 91/9/104 79/35/104
f 75/75/105 98/70/105 101/39/105 87/76/105
f 109/77/106 113/52/106 119/53/106
f 87/76/107 101/39/107 124/79/107 81/78/107
f 85/80/108 100/34/108 96/33/108 73/31/108
f 116/81/109 123/83/109 76/82/109
f 90/84/110 102/67/110 74/64/110
f 107/6/111 15/7/111 132/7/111 134/6/111
f 98/63/112 103/5/112 107/6/112 78/85/112
f 7/66/113 134/6/113 138/6/113 135/66/113
f 104/86/114 91/9/114 72/10/114
f 16/87/41 104/86/41 72/10/41 4/88/41
f 105/32/42 17/90/42 1/89/42 73/31/42
f 106/25/115 84/26/115 110/92/115 122/91/115
f 82/51/116 106/25/116 122/91/116 114/93/116
f 107/6/117 102/67/117 90/84/117 78/85/117
f 14/66/118 53/6/118 48/67/118
f 81/72/119 108/17/119 5/18/119 8/73/119
f 108/17/120 125/49/120 109/94/120 85/16/120
f 76/82/121 97/28/121 113/52/121
f 80/29/122 92/74/122 112/60/122 111/55/122
f 92/74/123 77/21/123 112/60/123
f 97/28/124 80/29/124 111/55/124 113/52/124
f 81/78/125 124/79/125 116/81/125
f 83/41/126 93/44/126 117/20/126 115/30/126
f 99/40/127 83/41/127 115/30/127 118/27/127
f 93/44/128 114/22/128 117/20/128
f 112/60/129 77/21/129 110/62/129
f 77/21/130 92/74/130 117/20/130
f 113/52/131 109/77/131 76/82/131
f 76/82/132 118/27/132 97/28/132
f 119/53/133 121/54/133 86/36/133 100/34/133
f 121/54/134 120/61/134 94/8/134 86/36/134
f 120/61/135 110/62/135 84/11/135 94/8/135
f 119/53/136 100/34/136 85/80/136 109/77/136
f 114/93/137 122/91/137 77/95/137
f 122/91/137 110/92/137 77/95/137
f 114/22/138 93/44/138 82/45/138
f 76/82/139 123/83/139 118/27/139
f 123/83/140 99/40/140 118/27/140
f 124/79/141 101/39/141 99/40/141
f 116/81/142 124/79/142 99/40/142 123/83/142
f 109/94/88 125/49/88 76/47/88
f 116/48/143 125/49/143 108/17/143 81/72/143
f 91/9/144 104/86/144 79/35/144
f 105/32/145 129/35/145 131/32/145
f 51/32/146 50/86/146 127/86/146 128/32/146
f 16/87/74 17/90/74 105/32/74 104/86/74
f 127/86/147 126/35/147 128/32/147
f 130/86/148 131/32/148 129/35/148
f 50/86/149 25/35/149 126/35/149 127/86/149
f 104/86/150 105/32/150 131/32/150 130/86/150
f 42/33/151 126/35/151 25/35/151
f 79/35/152 104/86/152 130/86/152 129/35/152
f 105/32/153 96/33/153 129/35/153
f 96/33/154 79/35/154 129/35/154
f 51/32/155 126/35/155 42/33/155
f 53/6/156 14/66/156 7/66/156 133/6/156
f 136/7/157 137/6/157 141/6/157 140/7/157
f 134/6/158 132/7/158 136/7/158 138/6/158
f 132/7/159 133/6/159 137/6/159 136/7/159
f 133/6/160 7/66/160 135/66/160 137/6/160
f 139/66/161 142/6/161 146/6/161 143/66/161
f 135/66/162 138/6/162 142/6/162 139/66/162
f 138/6/163 136/7/163 140/7/163 142/6/163
f 137/6/164 135/66/164 139/66/164 141/6/164
f 146/6/165 144/7/165 148/7/165 150/6/165
f 142/6/166 140/7/166 144/7/166 146/6/166
f 141/6/167 139/66/167 143/66/167 145/6/167
f 140/7/168 141/6/168 145/6/168 144/7/168
f 148/7/169 149/6/169 147/66/169 150/6/169
f 145/6/170 143/66/170 147/66/170 149/6/170
f 144/7/171 145/6/171 149/6/171 148/7/171
f 143/66/172 146/6/172 150/6/172 147/66/172
